<svg id="eb33d580-9408-4d12-8cbb-ea21ab95cb60" data-name="Layer 1" xmlns="http://www.w3.org/2000/svg" viewBox="0 0 279.23 281.73"><defs><style>.af94e82d-52f1-45af-8866-bad3641e6563{fill:#36beb6;}</style></defs><path class="af94e82d-52f1-45af-8866-bad3641e6563" d="M690.75,829.57h-.07a5.74,5.74,0,0,0-.83-.13c-1.46-.08-2.93-.13-4.39-.23-2-.13-3.92-.27-5.88-.46-1.69-.16-3.39-.35-5.07-.59a86.46,86.46,0,0,1-24.64-6.85l-1.51-.73h0a.36.36,0,0,1,0-.65h0a47.77,47.77,0,0,1,6-2.31c2.88-.9,5.77-1.76,8.66-2.65a57.26,57.26,0,0,0,13.13-5.86c1-.63,2.07-1.23,3.1-1.85,6.72-4,13.35-8.19,19.73-12.75a119.6,119.6,0,0,0,12.2-10c5-4.72,9.91-9.53,14.86-14.31,3.44-3.33,6.89-6.64,10.31-10,2.56-2.51,5.08-5,7.59-7.59,4.94-5,9.83-10.09,14.88-15,3.31-3.21,6.66-6.37,10.22-9.3a51.23,51.23,0,0,1,6.07-4.36c3-1.81,5.94-3.67,9-5.3a48.93,48.93,0,0,1,9.41-3.88,40.68,40.68,0,0,1,7.51-1.37,45.45,45.45,0,0,1,4.66-.16,21.64,21.64,0,0,1,10.82,3c1.39.82,2.74,1.71,4.09,2.59,2,1.28,3.91,2.59,5.88,3.87a2.82,2.82,0,0,0,.29.18.36.36,0,0,0,.53-.35v-.06A48.34,48.34,0,0,0,824.53,710a25.84,25.84,0,0,0-3.59-6.43,22.86,22.86,0,0,0-9.79-7.24,34.43,34.43,0,0,0-6.75-1.92,47.49,47.49,0,0,0-9.37-.78,43.8,43.8,0,0,0-12.45,2.06,56.35,56.35,0,0,0-13,6.17,92.6,92.6,0,0,0-11,8.19c-4.93,4.22-9.54,8.78-14,13.46-5.06,5.27-10,10.69-14.9,16.08-6,6.56-12,13.08-18.34,19.36-6,5.95-12.14,11.67-18.66,17a182.56,182.56,0,0,1-27,18.42,111.48,111.48,0,0,1-31.14,11.5c-1.28.28-2.58.49-3.88.65a35.7,35.7,0,0,1-8.45.3,15.16,15.16,0,0,1-2.76-.55,9.59,9.59,0,0,1-2.37-1.14c-2.78-1.86-5.45-3.87-8.08-5.94-3.9-3.07-7.69-6.26-11.27-9.69a54.14,54.14,0,0,1-4.55-4.79c-.7-.86-1.33-1.78-2-2.69l-.1-.15a.36.36,0,0,1,.35-.53h0l5.86.6c.88.09,1.76.16,2.64.22a185.91,185.91,0,0,0,19.18.34c3.1-.1,6.21-.27,9.3-.62,2.71-.3,5.43-.56,8.13-.95a139,139,0,0,0,51-17.71,122.2,122.2,0,0,0,17.18-12.1A84,84,0,0,0,719.55,735a78.05,78.05,0,0,0,10.6-22.4A100.31,100.31,0,0,0,733,699.89c.55-3.39,1-6.79,1.23-10.21.06-.82.11-1.64.18-2.46a4.19,4.19,0,0,1,.06-.48.35.35,0,0,1,.27-.3c.19,0,.37-.08.55-.1l5.08-.4,4-.31a19.08,19.08,0,0,0,5.85-1.53c1.32-.57,2.62-1.17,3.9-1.82q4.3-2.22,8.56-4.51a60.52,60.52,0,0,0,8.73-5.6l.09-.06a.35.35,0,0,1,.45,0,1.45,1.45,0,0,1,.21.22,27.61,27.61,0,0,1,2.81,4.35c.5.93,1,1.87,1.47,2.8a18.08,18.08,0,0,0,6.46,7.06c1.06.68,2.16,1.32,3.27,1.91a17.33,17.33,0,0,0,5.25,1.68,30.51,30.51,0,0,0,7.81.33,27.6,27.6,0,0,0,8.2-1.86,14.69,14.69,0,0,0,6.69-5.24,37.6,37.6,0,0,0,3.72-6.68,53.73,53.73,0,0,0,4-13.91,37.58,37.58,0,0,0,.38-7.19,22.35,22.35,0,0,0-1.39-7.14A12.29,12.29,0,0,0,817,643.1a9.76,9.76,0,0,0-2.3-1.36.36.36,0,0,0-.42.12c0,.07-.09.13-.12.19q-3.6,7.11-7.21,14.2l-.07.16a.37.37,0,0,0,.12.43l.5.36a22.89,22.89,0,0,1,3.53,2.9,21.82,21.82,0,0,1,1.64,2,6.68,6.68,0,0,1,1,2,4.74,4.74,0,0,1-.72,4.42,8,8,0,0,1-2,1.87,14.93,14.93,0,0,1-3.63,1.78,27.82,27.82,0,0,1-6,1.31,34.07,34.07,0,0,1-5.8.14,31.27,31.27,0,0,1-9.22-1.73,17.8,17.8,0,0,1-1.85-.8,12.15,12.15,0,0,1-6.26-7.15,23.34,23.34,0,0,1-1.08-5.16,56.4,56.4,0,0,1-.21-6.5c0-1.09,0-2.17,0-3.26v-.15a.37.37,0,0,0-.5-.32l-.31.15a19.78,19.78,0,0,0-3.73,2.63,44.28,44.28,0,0,0-3.41,3.44c-.84.93-1.68,1.88-2.54,2.8a33.48,33.48,0,0,1-4.31,4,22.67,22.67,0,0,1-9.72,4.29,30.91,30.91,0,0,1-5.6.56,45,45,0,0,1-5.8-.22,25.74,25.74,0,0,1-5.74-1.27,18.85,18.85,0,0,1-6.93-4.39,42.33,42.33,0,0,1-3.55-4c-1.46-1.8-2.9-3.62-4.38-5.4-.65-.79-1.37-1.53-2.06-2.29-.16-.17-.34-.32-.51-.48a1.72,1.72,0,0,0-.23.17c-2,3.29-4.08,6.59-6.12,9.87a.35.35,0,0,0,0,.28,29.6,29.6,0,0,0,1.37,3.59,9.52,9.52,0,0,0,.59,1.2c1.1,1.93,2.26,3.83,3.39,5.74a36.31,36.31,0,0,1,4.4,11.44,43.87,43.87,0,0,1,.81,5.92c.07,1.23.15,2.46.15,3.69a49,49,0,0,1-8.09,27.53,69.44,69.44,0,0,1-12.37,14.13,93.19,93.19,0,0,1-18.09,12.26A133.11,133.11,0,0,1,662.52,753a172.05,172.05,0,0,1-20,5.15c-3.86.76-7.73,1.43-11.63,1.92-2.82.35-5.64.72-8.47,1s-5.8.43-8.7.6c-4.8.28-9.62.28-14.43.15-2,0-4-.19-6.06-.28-1.44-.07-2.88-.12-4.31-.2-2-.12-3.93-.22-5.88-.41a28.07,28.07,0,0,1-7.62-1.71,14.83,14.83,0,0,1-3.53-2,11,11,0,0,1-2.95-3.34,3.6,3.6,0,0,1-.2-.39,1,1,0,0,1,0-.2c.07,0,.15-.08.21-.07l6.74.76,5.6.59c2,.21,4,.43,6,.63,1.54.15,3.09.29,4.64.42,1.84.16,3.68.3,5.53.45,1,.08,1.93.14,2.89.2a211.38,211.38,0,0,0,21.21.36c3-.1,5.91-.33,8.87-.61a133,133,0,0,0,42.49-11.51,142.32,142.32,0,0,0,16-8.4,82.66,82.66,0,0,0,11.75-8.65A55.22,55.22,0,0,0,710.67,716a50.26,50.26,0,0,0,6.93-17.48,36.79,36.79,0,0,0,.52-10.42,42.31,42.31,0,0,0-2.5-10.86,72.76,72.76,0,0,0-4-9.07c-1.52-2.88-3.11-5.72-4.66-8.58l-.44-.81a.36.36,0,0,1,0-.36c1.15-1.87,10.27-15.57,11.83-17.78a.36.36,0,0,1,.59,0l.06.08a30.46,30.46,0,0,1,2.69,4.22c.61,1.13,1.19,2.29,1.79,3.43q.69,1.32,1.41,2.64a21,21,0,0,0,10.49,9.25,25.37,25.37,0,0,0,8.62,1.94,28,28,0,0,0,11.65-1.79,22.78,22.78,0,0,0,6-3.4c.18-.14.36-.3.53-.45a1.18,1.18,0,0,0,.11-.18,8.75,8.75,0,0,0-.71-2.13,16.46,16.46,0,0,0-2.37-3.8,29.16,29.16,0,0,0-4.92-4.63,82.35,82.35,0,0,0-6.93-4.67l-3.14-1.95-.45-.31a.36.36,0,0,1-.08-.51L759,618.15a.38.38,0,0,0,0-.34,4.09,4.09,0,0,0-.16-.42,12,12,0,0,0-1.86-2.76,21.83,21.83,0,0,0-3.89-3.42,51.27,51.27,0,0,0-6-3.58l-3.45-1.77-.52-.28a.35.35,0,0,1-.17-.42,2.43,2.43,0,0,1,.35-.61c.78-1.17,1.54-2.36,2.4-3.47,1.81-2.34,3.7-4.63,5.53-7,1.4-1.77,2.79-3.55,4.15-5.36a30.93,30.93,0,0,0,2.43-3.76c.15-.27.28-.55.42-.82a.37.37,0,0,0,0-.38,1.56,1.56,0,0,0-.16-.2c-1.37-1.49-2.72-3-4.13-4.45-.92-.94-1.88-1.86-2.88-2.71a22.14,22.14,0,0,0-8.05-4.22,4.8,4.8,0,0,1-.82-.24.36.36,0,0,1-.19-.43,3.94,3.94,0,0,1,.38-.77c.63-1.06,1.24-2.13,1.94-3.14,1.45-2.14,3.09-4.14,4.73-6.13,2.21-2.7,4.44-5.39,6.65-8.09a57.48,57.48,0,0,0,3.6-4.89,4.82,4.82,0,0,0,.27-.5.35.35,0,0,1,.48-.15l0,0a78,78,0,0,1,9.22,3.67,112.31,112.31,0,0,1,20.21,12.22A151,151,0,0,1,824,600.07a116.88,116.88,0,0,1,11,19.82,169.81,169.81,0,0,1,10,31.45q1.44,6.84,2.21,13.79a83.07,83.07,0,0,1,.6,8.34,6.87,6.87,0,0,0,.14,1v14.67a10,10,0,0,0-.14,1.08c0,.91,0,1.82-.09,2.73-.26,3.45-.62,6.88-1.15,10.3a101.55,101.55,0,0,1-2.4,11.34,119.87,119.87,0,0,1-4.75,13.78c-.56,1.38-1.13,2.77-1.71,4.14-.08.2-.08.47-.37.54l0,0c0-.23.09-.46.16-.68,1.32-4.63,2.5-9.29,3.47-14,.79-3.79,1.48-7.6,2-11.44.37-2.76.66-5.53,1-8.3.33-3,.52-6.08.61-9.13a156.07,156.07,0,0,0-.44-19.34c-.31-3.39-.71-6.76-1.23-10.13a133.57,133.57,0,0,0-2.95-13.84,179.58,179.58,0,0,0-10.5-28.79,139.64,139.64,0,0,0-11.17-19.94,85.42,85.42,0,0,0-10.35-12.65,53.65,53.65,0,0,0-7.28-6.09c-.14-.09-.27-.21-.42-.3a.36.36,0,0,0-.54.25l-4,22.21a.13.13,0,0,0,0,.08h.14c.33-.39.63-.86.95-1.3s.68-1,1-1.43.53-.77.83-1.15a.36.36,0,0,1,.42-.11,1.23,1.23,0,0,1,.26.12c.41.22.83.45,1.22.71a20.85,20.85,0,0,1,3.24,2.69,54.87,54.87,0,0,1,5.64,6.63,125.58,125.58,0,0,1,8.12,12.55,122.68,122.68,0,0,1,7.26,14.56,120.25,120.25,0,0,1,7.06,24.17c.76,4.19,1.36,8.4,1.83,12.62q.64,5.73,1.24,11.46c.34,3.24.52,6.49.62,9.74a190.47,190.47,0,0,1-.62,23.65c-.3,3.25-.66,6.48-1.13,9.7-.71,4.76-1.62,9.48-2.79,14.14a109.77,109.77,0,0,1-6.34,18.53,73.28,73.28,0,0,1-9.08,15.23A137.67,137.67,0,0,1,793,796.18a151,151,0,0,1-37.14,21.6,145.55,145.55,0,0,1-27.26,8.12q-4.23.83-8.48,1.51c-1.94.31-3.9.54-5.85.77s-3.67.41-5.51.57c-2.22.18-4.45.33-6.67.47-1.53.09-3,.14-4.57.23a4.88,4.88,0,0,0-.75.12h-6ZM765.24,652a.35.35,0,0,0,.46,0l.14-.12c1.81-1.88,3.64-3.75,5.42-5.66.49-.53,1-1.09,1.43-1.65a32,32,0,0,0,4.18-6.29,13.31,13.31,0,0,0,1.26-4.09,2.12,2.12,0,0,0-.21-1.27,19.15,19.15,0,0,0-1.64-2.71,39.2,39.2,0,0,0-8.8-8.78c-.74-.53-1.53-1-2.31-1.44a2.09,2.09,0,0,0-.81-.34.46.46,0,0,0-.2.05,13.06,13.06,0,0,0-4.49,3.94c-.52.76-1,1.51-1.53,2.29a23.08,23.08,0,0,1-2.71,3.6c-1.08,1.17-2.15,2.36-3.18,3.58a20.38,20.38,0,0,0-2.68,4.12,3.09,3.09,0,0,0-.14.32.36.36,0,0,0,.08.39C751.19,639.64,763.17,650.36,765.24,652Zm-16.59-46.88a31.76,31.76,0,0,1,14.72,13,.36.36,0,0,0,.44.16,2.9,2.9,0,0,0,.47-.21c.81-.48,1.63-.94,2.39-1.47a22.67,22.67,0,0,0,4.1-3.85,48,48,0,0,0,6.94-11,1.58,1.58,0,0,0,.09-.26.36.36,0,0,0,0-.23c-.23-.6-.46-1.22-.73-1.82a25.9,25.9,0,0,0-6.65-8.87,24.92,24.92,0,0,0-7.16-4.56,2.59,2.59,0,0,0-.37-.11.35.35,0,0,0-.35.09l-.12.13L756.08,594c-1.92,2.37-3.85,4.74-5.57,7.26-.61.89-1.16,1.83-1.72,2.76a7.22,7.22,0,0,0-.32.68A.36.36,0,0,0,748.65,605.15ZM763,583.78a.36.36,0,0,0,.48.06,8,8,0,0,0,.85-.61c.67-.57,1.34-1.14,2-1.76a59.57,59.57,0,0,0,7.2-8.64c.6-.86,1.14-1.77,1.66-2.69a12.68,12.68,0,0,0,.78-1.67A3.89,3.89,0,0,0,776,566a7.21,7.21,0,0,0-.86-2.11,24.49,24.49,0,0,0-1.66-2.49,35,35,0,0,0-8.9-8,24.53,24.53,0,0,0-2.33-1.22,1.41,1.41,0,0,0-.38-.11.37.37,0,0,0-.34.12l-.23.27-2.19,2.75-11,13.93a2.86,2.86,0,0,0-.44.58.36.36,0,0,0,.05.41c.21.22.41.46.62.68a24.27,24.27,0,0,0,3.12,2.7c1.88,1.38,3.78,2.72,5.67,4.08a20.55,20.55,0,0,1,5,5.2C762.45,583.17,762.64,583.39,763,583.78Z" transform="translate(-568.72 -547.84)"/></svg>