<svg id="ab2302e8-2cc3-4714-b804-1f94d694412d" data-name="Layer 1" xmlns="http://www.w3.org/2000/svg" viewBox="0 0 510.58 422.99"><defs><style>.e401e698-58db-4298-8f9b-7599a006df4a{fill:#6f6f6f;}</style></defs><path class="e401e698-58db-4298-8f9b-7599a006df4a" d="M82.57,608.16a6.12,6.12,0,0,0-1-.63,10.19,10.19,0,0,1-6.27-7.33,27.65,27.65,0,0,1-.54-11.76,205.11,205.11,0,0,1,7.86-33.15c3.05-9.14,5.88-18.35,8.82-27.52.52-1.64,1.12-3.26,1.79-5.18l-2.33-.12c-3.68-.22-7.38-.22-11-.71a43.71,43.71,0,0,1-14.25-4.66c-5.85-3-9.66-8-12.19-13.92a32.11,32.11,0,0,1-3-14A32.67,32.67,0,0,1,55.82,472c6.94-10.39,16.65-16.5,28.82-18.68,5.88-1.06,11.86-.83,18.07-.4.52-1.28,1.15-2.67,1.66-4.1A258.52,258.52,0,0,1,123.14,408c6.71-11.83,14.15-23.21,21.64-34.54,1.26-1.9,2.51-3.81,3.76-5.71a104.4,104.4,0,0,1,20.17-22.51,38.57,38.57,0,0,1,3.88-2.84,6.48,6.48,0,0,1,4.24-1c2.66.27,4.11,2,3.74,4.68a21.71,21.71,0,0,1-.94,3.69c-3.61,10.79-7.86,21.34-12.47,31.74-8,18.06-17.09,35.59-26.16,53.12-4.68,9-9.3,18.1-13.94,27.15-.31.6-.6,1.2-.9,1.81,1.1,1.27,2.31,2.44,3.26,3.78a39.79,39.79,0,0,1,7.06,19.18,106.8,106.8,0,0,1-.7,24c-.1.78-.13,1.57-.22,2.61,1.2-.33,2.16-.57,3.1-.86a280.74,280.74,0,0,0,37.24-14.9c4.46-2.12,8.85-4.42,13.2-6.78,3.77-2,7.52-4.1,11.11-6.42,6.81-4.4,13.64-8.77,20.18-13.54a87,87,0,0,0,20.5-20.25c6.18-8.86,11.18-18.41,13.94-29,2.06-7.89,2.11-15.86,1.23-23.92-1-9.57-4-18.53-8-27.21-.81-1.77-1.48-3.59-2.28-5.36-1-2.13-1.94-4.26-3-6.35-3-6-6-12-9.11-17.88-2.21-4.2-4.64-8.28-6.95-12.44-1.3-2.33-2.48-4.74-3.82-7.05-2.16-3.77-4.38-7.52-6.63-11.24-4.1-6.74-8.3-13.43-12.36-20.2q-4.69-7.83-9.17-15.79a78.58,78.58,0,0,1-6.95-16.19,38.87,38.87,0,0,1-1.22-8.31c-.68-9.26,2.6-17.18,8-24.41a64,64,0,0,1,7-7.75,250.35,250.35,0,0,1,26.09-21.68c5.49-4,11.46-7.16,17.37-10.45a2.51,2.51,0,0,1,.65-.11,4.22,4.22,0,0,1-.45.53c-6.77,4.75-12.71,10.47-18.67,16.16-5.71,5.45-11.49,10.86-16.89,16.61a129.82,129.82,0,0,0-10.15,12.7c-2.8,3.85-4,8.41-4.75,13.09a37.64,37.64,0,0,0,4.09,23.89c3.39,6.46,6.68,13,10.11,19.4,1.13,2.12,2.53,4.1,3.81,6.14,1.88,3,3.78,6,5.63,9,1.4,2.28,2.75,4.59,4.1,6.91,3.05,5.27,6.18,10.49,9.1,15.83Q238,337.17,244.17,349a221.76,221.76,0,0,1,12.11,27.09c.3.82.57,1.65.92,2.44a64.83,64.83,0,0,1,4.94,20.59,78.61,78.61,0,0,1-4.64,34.72c-2.47,6.72-6.45,12.59-10.61,18.36-4,5.59-9,10.2-13.92,15-8.65,8.48-19,14.61-29.06,21.07a257.31,257.31,0,0,1-36.33,19.24A239.82,239.82,0,0,1,135.92,519a1.87,1.87,0,0,0-1.52,1.78A152.46,152.46,0,0,1,127,550.08c-1.68,4.44-3.11,9-4.68,13.45a118.15,118.15,0,0,1-9.48,20.79,73.76,73.76,0,0,1-14.56,18.07,24.84,24.84,0,0,1-9.32,5c-.68.22-1.33.55-2,.82Zm17.8-149.72a52.7,52.7,0,0,0-12.69.09c-5.21.45-10,2.37-14.6,4.74-8.24,4.21-13.29,11-16.09,19.61a18.76,18.76,0,0,0-.92,4.92,28.88,28.88,0,0,0,5.69,18.63,19.37,19.37,0,0,0,7.33,6.09c8.25,4.12,17,4.66,26.17,4.27,6.73-17.56,16-34,23.4-51.31-3.59-3.11-8-4.07-12.22-5.66a1.41,1.41,0,0,0-1.88.68c-.52.93-1,1.87-1.48,2.84-4,8.92-7.41,18.08-11.94,26.75-.22.43-.48.84-.91,1.59a12.71,12.71,0,0,1,0-1.8c.16-.92.35-1.84.6-2.74,2.59-9.28,5.66-18.4,9.14-27.39C100.12,459.39,100.2,459,100.37,458.44Zm28.41,62.29-29.62,1.91c-.19.5-.4,1-.57,1.49-1.55,4.56-3,9.13-4.64,13.68a323.4,323.4,0,0,0-12.82,46,40.09,40.09,0,0,0-1,11.75,16.29,16.29,0,0,0,1.19,4.62A3.68,3.68,0,0,0,86,602.34a20.45,20.45,0,0,0,8.11-3.81,47.36,47.36,0,0,0,8.49-9.06,82.62,82.62,0,0,0,12.27-21.77q4.56-12.54,8.84-25.17A131.89,131.89,0,0,0,128.78,520.73Zm45.48-172.58c-.69.53-1.07.8-1.43,1.09a97,97,0,0,0-18.45,20c-4.36,6.42-8.65,12.89-13,19.35-4.91,7.34-9.7,14.76-13.87,22.57-7.29,13.66-13.24,27.92-19,42.25a4,4,0,0,0-.15.95c4.54,1.79,9.18,3.11,13.23,6,1.19-2.26,2.29-4.33,3.38-6.39,8.72-16.35,17.54-32.66,26.12-49.09a345.23,345.23,0,0,0,17.72-39.1A142.35,142.35,0,0,0,174.26,348.15Zm-72.89,168.3c.32.17.38.24.44.23,8.75-.33,17.52-.55,26.21-1.78,1.74-.24,1.8-.32,2-2.14.06-.67.11-1.33.19-2a107.22,107.22,0,0,0,1-22,35.7,35.7,0,0,0-6-17.65c-.48-.7-1.05-1.33-1.81-2.29C116.22,485,107.94,500.27,101.37,516.45Z" transform="translate(-50.42 -185.17)"/><path class="e401e698-58db-4298-8f9b-7599a006df4a" d="M561,539.05c-5,4.6-10.39,8.44-17.19,9.81a13.43,13.43,0,0,1-3.8.16,5.21,5.21,0,0,1-5.1-4.34c-.27-1-.39-2.09-.62-3.39-.68.32-1.27.58-1.84.86a32.9,32.9,0,0,1-8,3.1c-5,.92-8.56-.87-10.56-5.49-.92-2.15-1.58-4.41-2.36-6.61-.26-.74-.53-1.48-.8-2.23a4.34,4.34,0,0,0-2.7,1.93c-2.13,2.75-4.22,5.54-6.28,8.34-1.31,1.78-2.5,3.65-3.82,5.42a4.31,4.31,0,0,1-1.65,1.38c-1.74.79-2.78.4-3.51-1.38a17.27,17.27,0,0,1-1.1-3.85c-.4-2.5-.62-5-1-7.56a28.4,28.4,0,0,0-.86-4.52c-.85-2.62-2.74-3.17-5-1.56a10.88,10.88,0,0,0-1.77,1.62,51.21,51.21,0,0,0-8.94,14,32.81,32.81,0,0,0-1.28,4,2.79,2.79,0,0,1-3.21,1.92c-.79-.22-.76-.83-.63-1.45.31-1.51.64-3,.95-4.52.12-.58.21-1.16.38-2.11-.69.39-1.11.61-1.52.85-3.11,1.83-6.14,3.82-9.37,5.42a16.31,16.31,0,0,1-5.59,1.4,5.19,5.19,0,0,1-5.64-3.62,21.41,21.41,0,0,1-.94-4.08c-.15-.83-.16-1.68-.27-2.91-.87.67-1.41,1.15-2,1.54-2.9,1.92-5.77,3.88-8.73,5.69a11.14,11.14,0,0,1-3.37,1.26c-3,.7-5.15-1-5.24-4.1,0-.6.05-1.19.09-1.91-.87-.06-1.36.55-1.91.93a42.76,42.76,0,0,1-9.36,5,14,14,0,0,1-6.09,1c-2.8-.23-4.47-1.62-5-4.37-.28-1.49-.31-3-.47-4.8-.7.53-1.28.94-1.82,1.39a49.74,49.74,0,0,1-11.87,7.46,19.42,19.42,0,0,1-5.37,1.49c-3.26.36-5.36-1.14-6.42-4.26a18.15,18.15,0,0,1-.61-2.93c-.15-1-.21-2-.34-3.35-.8.59-1.37,1-1.91,1.43a43.05,43.05,0,0,1-8.89,5.81,14.34,14.34,0,0,1-3.79,1.27c-2.6.45-4.6-1.07-4.63-3.7a11.32,11.32,0,0,1,1-4.85,29.76,29.76,0,0,1,13.87-14,10.36,10.36,0,0,1,1.3-.52c2.88-.94,4.49-.72,7.16,1.05,1.05-1.24,1.9-3.22,4.37-1.87-.33.95-.67,1.87-1,2.8-1.1,3.44-2.29,6.85-3.25,10.32a12.52,12.52,0,0,0,.14,6.37c.74,3,2.84,4.37,5.86,3.74a16.69,16.69,0,0,0,4.11-1.52,47.6,47.6,0,0,0,9.59-6.91c.75-.66,1.61-1.18,2.37-1.82a2.13,2.13,0,0,0,.8-1c.53-2.62,1-5.25,1.46-7.88,0-.11-.09-.23-.15-.37l-8.17.21h-1.61c-1.07,0-1.77-.45-2.1-1.78a8.91,8.91,0,0,1,2-.65c2.4-.2,4.8-.31,7.21-.42,1.12-.05,2.26,0,3.52,0,.32-1.49.55-2.87.91-4.21.54-2,1.1-4,1.8-5.94.43-1.2.64-1.24,2.2-1.8.21,3.84-1.38,7.34-1.73,11.17a10.53,10.53,0,0,0,1.56.07c3.79-.37,7.59-.77,11.38-1.16.54-.05,1.07-.16,1.6-.18a1.53,1.53,0,0,1,1.78,1.28,10.41,10.41,0,0,1-2.13.8c-3.9.58-7.82,1.09-11.73,1.62-.92.12-1.85.22-3,.35-.39,2.07-.89,4.08-1.13,6.12a85.14,85.14,0,0,0-.64,8.59c0,3.63,1.93,5.16,5.47,4.35a21.14,21.14,0,0,0,5.09-1.81c3.08-1.61,6.06-3.41,9-5.23a5.47,5.47,0,0,0,1.52-1.8,32.57,32.57,0,0,1,10.66-10.74,18.12,18.12,0,0,1,2.31-1.21c2.84-1.21,5.67-1.73,8.32.63,1.07-1.39,1.92-3.18,4.35-2-.23.77-.45,1.51-.69,2.24-1.06,3.1-2.19,6.18-3.16,9.31a14.87,14.87,0,0,0-.25,7.75c.72,3.19,2.85,4.64,6.06,4a14.67,14.67,0,0,0,3.38-1.21,40.5,40.5,0,0,0,9.65-6.81,4.17,4.17,0,0,0,1.13-2.24q1.23-6.71,2.27-13.46c.26-1.76,1.2-2.7,3.14-3.27-.11,5.13-1.09,10-1.23,15,.45-.54.87-1.11,1.34-1.63,2-2.19,3.89-4.43,6-6.53A8.09,8.09,0,0,1,487.5,525c2.58-.42,4.16.26,5.27,2.61a20,20,0,0,1,1.54,4.75c.54,2.76.84,5.56,1.26,8.34.18,1.17.44,2.33.66,3.5l.42.13c.43-.54.88-1.07,1.29-1.64,2.17-3.05,4.32-6.12,6.52-9.16a29,29,0,0,1,2.3-2.78,15.83,15.83,0,0,1,2.23-2c3.16-2.31,5.08-1.69,6.28,2,.44,1.33.69,2.72,1.13,4.06a33.17,33.17,0,0,0,1.81,4.88,6.48,6.48,0,0,0,7.71,3.61,17.11,17.11,0,0,0,3.41-1.15c1.71-.76,3.36-1.64,5.13-2.51.27-1.44.45-3,.84-4.45.78-3,1.64-5.94,2.54-8.88.47-1.52,1.09-1.88,3-1.91-.16.74-.28,1.43-.44,2.11-.72,3.06-1.56,6.1-2.14,9.19a27.69,27.69,0,0,0-.32,5.39,9.64,9.64,0,0,0,.61,2.93,3,3,0,0,0,3.19,2.26,20.75,20.75,0,0,0,4.53-.69c4.17-1.21,7.8-3.5,11.38-5.88,1-.67,2-1.4,3.32-1.07ZM376.29,527a13.4,13.4,0,0,0-2.83,1.3A26.16,26.16,0,0,0,364.09,541c-.39,1.08-.94,2.43.2,3.37s2.19.14,3.18-.35a27,27,0,0,0,10.6-9.24,17.66,17.66,0,0,0,2-3.69C380.87,528.83,379.38,527,376.29,527Zm56,15.22c-.13,2.1.62,2.8,2.26,2.33a12.6,12.6,0,0,0,2.74-1.2,27.25,27.25,0,0,0,9.21-8.46,20.79,20.79,0,0,0,2.11-4,2.82,2.82,0,0,0-2.39-3.78,5,5,0,0,0-2.34.28,10.8,10.8,0,0,0-2.76,1.58,27.42,27.42,0,0,0-8.28,11.35A13.65,13.65,0,0,0,432.25,542.2Z" transform="translate(-50.42 -185.17)"/><path class="e401e698-58db-4298-8f9b-7599a006df4a" d="M222.2,526.68c-1.13-.55-2-1-3-1.45a8.58,8.58,0,0,0-6.62-.63,9.54,9.54,0,0,0-2.47,1.29,3.91,3.91,0,0,0-1.57,4.43,17.66,17.66,0,0,0,1.19,3.41c1.89,3.75,3.88,7.46,5.83,11.18a1,1,0,0,0,.39,0c4.66-2,9.3-4.11,14-6.06a4.16,4.16,0,0,0,2.58-3.18q6.39-23.85,12.91-47.66c.25-.91.52-1.81.82-2.69a6.62,6.62,0,0,1,3.82-3.81,28.17,28.17,0,0,1-.42,2.84c-1.72,6.47-3.53,12.91-5.19,19.39-2.4,9.4-4.71,18.82-7.05,28.23a3,3,0,0,0,0,1.62c.31-.4.61-.81.91-1.21.91-1.25,1.72-2.57,2.74-3.72a12.48,12.48,0,0,1,2.88-2.45c3-1.75,5.71-.78,7,2.44.44,1.12.64,2.33,1,3.46a66.9,66.9,0,0,0,3,7.86c2.56,5.09,5.73,6.09,10.89,3.7,1.58-.73,3.05-1.67,4.58-2.5.62-.33,1.25-.64,1.88-.95l.24.31c-.19.3-.32.69-.58.87a71.43,71.43,0,0,1-7.13,4.83c-4.53,2.42-8.75,1.4-12-2.57a18,18,0,0,1-3.38-6.11c-.66-2.11-1.33-4.22-2-6.31a10,10,0,0,0-.8-1.84c-.59-1-1.27-1.09-2.1-.3a7.12,7.12,0,0,0-.88,1.09c-3.81,5.36-7.43,10.82-9.92,17a2.79,2.79,0,0,1-2.53,1.94c-1.25.12-1.73-.35-1.49-1.62.31-1.64.72-3.26,1.07-4.9.16-.7.29-1.4.47-2.32l-14.85,6.55a56.46,56.46,0,0,1-.33,6.14,10.82,10.82,0,0,1-3.84,6.64,6.6,6.6,0,0,1-6.21,1.36,3.83,3.83,0,0,1-2.92-4.91,11.69,11.69,0,0,1,1.66-3.38,16.78,16.78,0,0,1,5.09-4.5l2-1.24a42.19,42.19,0,0,0-3.48-7.65c-.58.44-1.06.76-1.49,1.13a54.14,54.14,0,0,1-12.21,8,24.58,24.58,0,0,1-4.91,1.69c-4.1.88-6.82-.83-7.85-4.87a54.07,54.07,0,0,1-.84-5.46c-.7.51-1.27.9-1.79,1.33a43.05,43.05,0,0,1-8.89,5.81,14.57,14.57,0,0,1-3.78,1.29c-2.6.46-4.6-1-4.67-3.67a10.58,10.58,0,0,1,.88-4.66,29.21,29.21,0,0,1,14.31-14.35c2.72-1.28,5.55-1.57,8,.67,2.14-2.61,2.33-2.7,4.42-1.87-.26.78-.53,1.57-.78,2.37-1.16,3.63-2.42,7.23-3.43,10.89a12.1,12.1,0,0,0,.2,6.37,4.56,4.56,0,0,0,5.57,3.64,11.19,11.19,0,0,0,3.59-1.2,81.8,81.8,0,0,0,7.06-4.57c1.94-1.41,3.68-3.08,5.53-4.66-.43-1-.81-1.95-1.21-2.87-2.95-6.83,1.83-11.16,6.63-12a9.76,9.76,0,0,1,8.18,1.77A3,3,0,0,1,222.2,526.68Zm-53.77,18a23.41,23.41,0,0,0,2.57-1.11,27.28,27.28,0,0,0,9.58-8.63,18.87,18.87,0,0,0,2.07-3.86,2.91,2.91,0,0,0-2.87-4.07,6.45,6.45,0,0,0-4.21,1.64,27,27,0,0,0-8.73,12,7.77,7.77,0,0,0-.48,2.53C166.33,544.2,167,544.7,168.43,544.65Zm44,4.51a20.84,20.84,0,0,0-6.06,5.27,5.08,5.08,0,0,0-.82,1.8,2,2,0,0,0,2.11,2.63,3.88,3.88,0,0,0,3-1.36C212.79,555.18,213.15,552.48,212.4,549.16Z" transform="translate(-50.42 -185.17)"/><path class="e401e698-58db-4298-8f9b-7599a006df4a" d="M330.86,476.81c-.48,4.86-1.38,9.64-1.93,14.45s-1.07,9.72-1.71,14.56-1.4,9.64-2.12,14.52c.26,0,.46.16.62.12,7.23-2.19,14.46-4.43,21.71-6.54a2.7,2.7,0,0,0,2.15-2.44c1.55-7.33,3.2-14.64,4.85-22,.46-2,2-3.18,4.58-3.48-.87,4.38-2.07,8.59-3,12.87s-1.7,8.48-2.61,13a16.83,16.83,0,0,0,1.83-.45q5.52-2.15,11-4.32c.68-.26,1.33-.63,2-.84a2.08,2.08,0,0,1,2.55.63,11.21,11.21,0,0,1-1.86,1.45c-2.11,1-4.24,2-6.42,2.85-2.69,1-5.42,1.95-8.16,2.81a2,2,0,0,0-1.61,1.75c-1.71,10.52-3.31,21.05-2.52,31.76a67,67,0,0,0,1.43,9.1,21.2,21.2,0,0,0,1.88,4.41c.35.74.86,1.42,0,2.12a2.17,2.17,0,0,1-2.76-.18,16.05,16.05,0,0,1-1.82-3.1,32,32,0,0,1-2.4-9.91,114,114,0,0,1,.66-23.65c.35-3,.84-6,1.26-9a9.28,9.28,0,0,0,0-1.18,3.2,3.2,0,0,0-.89,0c-7.28,2.27-14.67,4.22-21.7,7.25a3.29,3.29,0,0,0-2.2,2.74A74.63,74.63,0,0,1,319,542.56a27.5,27.5,0,0,1-6.23,9.27,13.8,13.8,0,0,1-10.34,4.11c-5-.22-8.06-4-7-8.84a16.13,16.13,0,0,1,1.91-4.81,45.54,45.54,0,0,1,18.89-17.52c1.14-.57,2.26-1.19,3.44-1.66a2.53,2.53,0,0,0,1.73-2.2c.89-5.89,1.95-11.76,2.75-17.66,1.05-7.76,1.91-15.55,2.88-23.32C327.2,477.93,328.42,476.94,330.86,476.81Zm-10.95,49.62a8.36,8.36,0,0,0-1.3.53c-2.17,1.34-4.41,2.56-6.44,4.08a42.87,42.87,0,0,0-10.53,11.72,10.81,10.81,0,0,0-1.9,5.64c-.07,3.19,1.75,4.85,4.91,4.5a8.73,8.73,0,0,0,4.4-1.79,19.14,19.14,0,0,0,5.63-7.2A79.24,79.24,0,0,0,320,527.12,2.34,2.34,0,0,0,319.91,526.43Z" transform="translate(-50.42 -185.17)"/><path class="e401e698-58db-4298-8f9b-7599a006df4a" d="M166.39,526.21a8.34,8.34,0,0,1-1.63-.1,9.77,9.77,0,0,0-6.85.75c-8,3.7-13.19,9.66-15,18.39-.54,2.63-1.36,3.2-4.46,2.81.14-.94.22-1.91.43-2.84,1.08-5,2.22-9.93,3.28-14.9.4-1.89.64-3.82,1-5.73.37-2.06.89-2.56,3.31-3.08.1,3.91-1,7.66-1.34,11.9.66-.69,1-1.08,1.41-1.5a21.26,21.26,0,0,1,14-7.51,17.29,17.29,0,0,1,4.18.22A1.72,1.72,0,0,1,166.39,526.21Z" transform="translate(-50.42 -185.17)"/><path class="e401e698-58db-4298-8f9b-7599a006df4a" d="M542.53,512.84c1,0,1.52.4,1.56,1.36a3.86,3.86,0,0,1-3.63,3.54,1.18,1.18,0,0,1-1.26-1.24A4,4,0,0,1,542.53,512.84Z" transform="translate(-50.42 -185.17)"/></svg>