<?xml version="1.0" standalone="no"?>
<!DOCTYPE svg PUBLIC "-//W3C//DTD SVG 20010904//EN"
 "http://www.w3.org/TR/2001/REC-SVG-20010904/DTD/svg10.dtd">
<svg version="1.0" xmlns="http://www.w3.org/2000/svg"
 width="500.000000pt" height="500.000000pt" viewBox="0 0 500.000000 500.000000"
 preserveAspectRatio="xMidYMid meet">
<metadata>
Created by potrace 1.11, written by Peter Selinger 2001-2013
</metadata>
<g transform="translate(0.000000,500.000000) scale(0.100000,-0.100000)"
fill="#000000" stroke="none">
<path d="M3410 4981 c-5 -11 -16 -25 -22 -33 -7 -7 -31 -36 -53 -63 -21 -28
-42 -52 -45 -55 -3 -3 -36 -43 -73 -90 -37 -47 -71 -90 -76 -96 -22 -27 -41
-74 -30 -74 6 0 40 -14 75 -30 44 -22 86 -54 138 -107 l74 -76 -26 -41 c-15
-23 -71 -97 -125 -165 -105 -132 -132 -170 -126 -175 2 -2 29 -16 59 -31 106
-53 190 -118 215 -165 13 -25 8 -33 -126 -210 -119 -158 -137 -186 -123 -195
194 -118 275 -191 312 -278 11 -26 10 -29 -36 -58 -99 -63 -244 -87 -362 -59
-128 29 -225 108 -287 231 -18 35 -46 83 -61 107 l-29 42 -106 -160 c-59 -88
-107 -164 -107 -170 0 -5 14 -33 31 -61 79 -135 147 -294 164 -389 11 -57 13
-197 4 -243 -14 -69 -16 -80 -34 -132 -74 -215 -231 -393 -488 -553 -195 -122
-550 -263 -772 -308 -108 -21 -121 -23 -280 -43 -70 -9 -544 -7 -620 3 -38 4
-114 12 -235 22 -30 3 -66 7 -80 9 -14 3 -56 8 -94 11 l-70 7 22 -27 c52 -67
126 -98 262 -111 201 -18 602 -19 695 -1 11 2 52 7 90 11 39 4 77 9 85 10 8 1
35 6 60 10 395 65 777 202 1020 368 228 156 392 351 470 559 62 166 63 431 3
568 -29 67 -38 85 -85 164 -68 115 -68 118 -7 217 28 46 54 86 56 89 5 5 41
-33 112 -120 130 -159 207 -196 406 -194 164 2 237 36 368 171 79 81 153 143
172 143 3 0 5 -42 4 -94 -1 -179 50 -278 166 -319 138 -48 334 -39 427 20 89
55 89 116 -1 201 l-57 54 65 129 c37 71 70 129 74 129 20 0 69 -44 91 -83 69
-118 50 -354 -43 -553 -55 -117 -115 -176 -211 -205 -124 -37 -265 -29 -360
22 -80 43 -122 85 -167 164 -71 125 -76 130 -105 102 -31 -30 -272 -163 -360
-198 -47 -18 -73 -23 -203 -34 -38 -4 -72 -9 -74 -11 -3 -2 -6 -26 -7 -52 -2
-43 -7 -87 -20 -167 -3 -16 -7 -43 -10 -60 -35 -220 -164 -508 -293 -659 -116
-134 -264 -262 -421 -365 -113 -74 -341 -188 -465 -233 -108 -40 -290 -93
-350 -102 -21 -4 -40 -8 -44 -10 -3 -3 -27 -7 -51 -10 -25 -4 -56 -9 -70 -11
-164 -30 -530 -40 -749 -21 l-95 8 29 -39 c90 -120 410 -380 498 -404 69 -19
170 -12 317 23 83 19 215 59 255 77 11 5 49 21 85 36 126 52 380 203 525 313
33 26 62 49 65 52 3 3 15 13 27 21 24 17 111 90 188 159 120 107 381 376 640
659 211 231 442 437 585 522 172 103 274 133 455 133 334 1 501 -132 555 -443
6 -34 9 -65 7 -67 -2 -2 -51 27 -109 64 -159 103 -246 123 -413 94 -105 -17
-218 -63 -350 -143 -150 -90 -220 -150 -555 -482 -726 -718 -797 -779 -1181
-1010 -166 -100 -227 -129 -356 -167 -152 -46 -244 -81 -238 -90 7 -11 149
-66 223 -86 84 -23 171 -41 233 -49 30 -4 65 -9 79 -12 65 -11 474 -10 590 3
514 56 918 200 1321 470 63 42 116 80 119 83 3 4 28 24 55 46 82 65 225 204
310 300 89 101 225 313 225 351 0 8 4 14 9 14 5 0 11 10 14 23 3 12 21 65 40
117 18 53 36 107 40 120 3 14 8 34 10 45 12 46 47 217 52 257 3 24 8 59 10 78
14 98 20 223 20 395 0 167 -10 379 -19 395 -2 3 -7 37 -10 76 -4 39 -9 82 -11
95 -3 13 -7 44 -10 68 -5 37 -18 105 -40 203 -9 41 -49 177 -62 213 -110 297
-321 633 -464 739 l-37 27 -31 -38 c-21 -25 -30 -31 -27 -18 3 11 7 31 10 45
19 110 58 318 62 330 3 8 8 10 12 5 4 -6 25 -23 47 -39 113 -83 265 -270 370
-456 145 -258 293 -655 329 -880 3 -19 8 -44 10 -56 4 -21 8 -48 25 -189 9
-74 7 -475 -3 -535 -3 -19 -10 -71 -16 -115 -6 -44 -14 -93 -17 -110 -3 -16
-7 -40 -8 -52 -2 -12 -11 -53 -20 -90 -9 -36 -18 -74 -20 -83 -2 -9 -10 -41
-19 -70 -23 -77 -4 -50 33 47 77 202 104 316 129 528 9 81 9 441 -1 535 -37
353 -155 731 -320 1025 -76 134 -222 337 -312 431 -158 167 -211 218 -322 307
-169 136 -366 254 -528 316 -44 17 -81 31 -82 31 -1 0 -7 -9 -13 -19z m149
-118 c120 -100 174 -187 147 -238 -39 -73 -61 -104 -133 -183 -82 -91 -86 -92
-133 -39 -22 25 -83 77 -135 117 -52 40 -97 76 -100 80 -2 4 53 79 123 167
l127 160 35 -18 c19 -9 50 -30 69 -46z m-3 -583 c66 -46 128 -113 160 -174
l29 -55 -26 -53 c-53 -107 -181 -248 -225 -248 -7 0 -20 12 -28 28 -33 59
-123 140 -203 182 -24 12 -43 25 -43 29 0 8 59 103 69 111 3 3 24 28 45 55 22
28 50 60 62 73 12 12 32 38 45 58 28 41 48 40 115 -6z m5 -591 c54 -38 133
-121 166 -172 29 -46 25 -76 -19 -154 -31 -56 -175 -216 -189 -211 -18 6 -279
242 -279 252 0 16 33 68 65 102 15 16 52 61 81 101 54 72 97 113 119 113 7 0
32 -14 56 -31z"/>
</g>
</svg>
